<?xml version="1.0" standalone="no"?>
<!DOCTYPE svg PUBLIC "-//W3C//DTD SVG 20010904//EN"
 "http://www.w3.org/TR/2001/REC-SVG-20010904/DTD/svg10.dtd">
<svg version="1.0" xmlns="http://www.w3.org/2000/svg"
 width="310.000000pt" height="310.000000pt" viewBox="0 0 310.000000 310.000000"
 preserveAspectRatio="xMidYMid meet">
<metadata>
Created by potrace 1.14, written by Peter Selinger 2001-2017
</metadata>
<g transform="translate(0.000000,310.000000) scale(0.100000,-0.100000)"
fill="#000000" stroke="none">
<path d="M0 1910 l0 -1191 31 36 c67 76 128 88 245 50 46 -16 85 -27 87 -24 5
5 119 297 155 396 l27 72 -44 38 c-64 54 -125 142 -158 225 -25 66 -28 85 -28
193 0 135 13 182 84 304 267 456 408 691 429 714 35 36 93 52 146 38 23 -6
136 -49 251 -96 116 -48 236 -97 268 -108 l57 -22 58 22 c31 11 156 62 277
111 121 49 234 93 252 97 44 9 104 -10 135 -42 22 -24 192 -308 416 -693 88
-152 97 -182 97 -325 0 -108 -3 -127 -28 -193 -32 -81 -92 -168 -155 -224 -23
-21 -42 -42 -42 -48 0 -5 21 -62 46 -127 100 -258 128 -328 131 -332 2 -3 41
8 87 24 117 38 178 26 245 -50 l31 -36 0 1191 0 1190 -1550 0 -1550 0 0 -1190z"/>
<path d="M944 2468 c-13 -24 -51 -88 -83 -143 -33 -55 -56 -103 -53 -107 10
-10 501 -208 516 -208 11 0 96 275 96 310 0 5 -17 17 -37 26 -99 41 -404 164
-408 164 -3 0 -17 -19 -31 -42z"/>
<path d="M2030 2474 c-47 -20 -141 -58 -210 -86 -69 -28 -129 -54 -134 -59
-12 -11 74 -319 90 -319 15 0 506 198 516 208 7 8 -152 284 -167 288 -5 2 -48
-13 -95 -32z"/>
<path d="M1521 1778 c-85 -324 -120 -400 -224 -494 -104 -93 -231 -145 -371
-150 -44 -2 -82 -7 -86 -11 -16 -18 -182 -455 -177 -467 3 -7 33 -23 66 -36
70 -26 124 -78 140 -137 13 -47 13 -59 1 -105 -19 -66 15 -75 -530 147 -268
109 -332 135 -336 135 -2 0 -4 -148 -4 -330 l0 -330 1550 0 1550 0 0 330 c0
182 -2 330 -4 330 -4 0 -68 -26 -336 -135 -431 -175 -483 -195 -500 -190 -10
3 -23 20 -29 37 -35 100 24 205 141 249 33 12 62 28 64 34 3 7 -11 55 -31 106
-20 52 -60 153 -87 224 -28 72 -55 134 -59 139 -5 6 -31 9 -58 7 -66 -3 -211
33 -281 70 -32 17 -83 53 -113 80 -108 96 -142 170 -228 497 -11 45 -25 82
-29 82 -4 0 -18 -37 -29 -82z"/>
</g>
</svg>
